<svg xmlns="http://www.w3.org/2000/svg" width="353.601" height="111.155" viewBox="0 0 353.601 111.155">
  <g id="Group_135" data-name="Group 135" transform="translate(-783 -10.845)">
    <text id="Levitating_plant" data-name="Levitating plant" transform="translate(783 66)" font-size="45" font-family="Lexend-Light, Lexend" font-weight="300"><tspan x="0" y="45">Levitating plant</tspan></text>
    <g id="ncBd7B7cA" transform="translate(2064.312 357.726) rotate(-13)">
      <g id="layer1" transform="translate(-963.88 -570.574)">
        <path id="path12384" d="M-1002.1-592.574h0" transform="translate(1002.159 592.574)"/>
        <path id="path12382" d="M-1002.88-512.777h0" transform="translate(1002.88 518.767)"/>
        <path id="path12376" d="M-939.826-592.574h0" transform="translate(944.559 592.574)"/>
        <path id="path12374" d="M-939.549-512.777h0" transform="translate(944.303 518.767)"/>
        <path id="path12366" d="M-742.35-592.574h0" transform="translate(761.906 592.574)"/>
        <path id="path12364" d="M-743.625-512.777h0" transform="translate(763.085 518.767)"/>
        <path id="path12356" d="M-543.543-592.574h0" transform="translate(578.021 592.574)"/>
        <path id="path12354" d="M-543.765-512.777h0" transform="translate(578.227 518.767)"/>
        <path id="path1383" d="M67.314,551.323c12.44-1.161,20.506-10.855,31.152-30.873,0,0-14.081,28.062-28.269,26.031l-2.883,4.842Z" transform="translate(13.016 -436.905)" fill-rule="evenodd"/>
        <path id="path1381" d="M220.866,240.142c-4.372,10.619-13.01,18.377-19.472,24.144-3.231,2.884-6.074,5.654-7.726,9.026s-2.075,7.329-.538,12.457l1.23.393s-.178-.693-.206-.788a18.556,18.556,0,0,0,13.8-3.963c7.03-5.445,13.728-16.994,12.884-41.269Zm-1.051,2.941c.219,22.082-6.119,32.6-12.556,37.59a20.18,20.18,0,0,1-13.18,4.5c-1.364-4.787-.947-8.37.57-11.469,1.555-3.174,4.288-5.862,7.5-8.726C208.067,259.69,215.577,253.8,219.814,243.083Z" transform="translate(-102.474 -177.636)" fill-rule="evenodd"/>
      </g>
    </g>
  </g>
</svg>
